{
  "source": "C:\\Users\\Peter\\Desktop\\stuff\\MIUN\\quantitative_research\\video_compression\\videos\\BVI-HD\\BVI-HD_CDVL_videos\\ORIG\\BallUnderWater_1920x1080_60fps.mp4",
  "output": "C:\\Users\\Peter\\Desktop\\stuff\\MIUN\\quantitative_research\\video_compression\\compressed_videos\\BVI-HD\\h264\\8\\BallUnderWater_1920x1080_60fps_h264.mp4",
  "codec": "h264",
  "ok": "Input #0, mov,mp4,m4a,3gp,3g2,mj2, from 'C:\\Users\\Peter\\Desktop\\stuff\\MIUN\\quantitative_research\\video_compression\\videos\\BVI-HD\\BVI-HD_CDVL_videos\\ORIG\\BallUnderWater_1920x1080_60fps.mp4':\n  Metadata:\n    major_brand     : isom\n    minor_version   : 512\n    compatible_brands: isomiso2avc1mp41\n    encoder         : Lavf54.28.101\n  Duration: 00:00:05.00, start: 0.000000, bitrate: 212030 kb/s\n  Stream #0:0[0x1](und): Video: h264 (High 4:4:4 Predictive) (avc1 / 0x31637661), yuv420p(progressive), 1920x1080, 212025 kb/s, 60 fps, 60 tbr, 60 tbn (default)\n    Metadata:\n      handler_name    : VideoHandler\n      vendor_id       : [0][0][0][0]\n[out#0/mp4 @ 0000024140681700] Codec AVOption b:a (set bitrate (in bits/s)) has not been used for any stream. The most likely reason is either wrong type (e.g. a video option with no video streams) or that it is a private option of some decoder which was not actually used for any stream.\nStream mapping:\n  Stream #0:0 -> #0:0 (h264 (native) -> h264 (libx264))\nPress [q] to stop, [?] for help\n[libx264 @ 000002414221eb80] using cpu capabilities: MMX2 SSE2Fast SSSE3 SSE4.2 AVX FMA3 BMI2 AVX2\n[libx264 @ 000002414221eb80] profile High, level 5.0, 4:2:0, 8-bit\n[libx264 @ 000002414221eb80] 264 - core 165 r3222 b35605a - H.264/MPEG-4 AVC codec - Copyleft 2003-2025 - http://www.videolan.org/x264.html - options: cabac=1 ref=5 deblock=1:0:0 analyse=0x3:0x113 me=hex subme=8 psy=1 psy_rd=1.00:0.00 mixed_ref=1 me_range=16 chroma_me=1 trellis=2 8x8dct=1 cqm=0 deadzone=21,11 fast_pskip=1 chroma_qp_offset=-2 threads=18 lookahead_threads=3 sliced_threads=0 nr=0 decimate=1 interlaced=0 bluray_compat=0 constrained_intra=0 bframes=3 b_pyramid=2 b_adapt=1 b_bias=0 direct=3 weightb=1 open_gop=0 weightp=2 keyint=250 keyint_min=25 scenecut=40 intra_refresh=0 rc_lookahead=50 rc=cbr mbtree=1 bitrate=8000 ratetol=1.0 qcomp=0.60 qpmin=0 qpmax=69 qpstep=4 vbv_maxrate=8000 vbv_bufsize=8000 nal_hrd=none filler=0 ip_ratio=1.40 aq=1:1.00\nOutput #0, mp4, to 'C:\\Users\\Peter\\Desktop\\stuff\\MIUN\\quantitative_research\\video_compression\\compressed_videos\\BVI-HD\\h264\\8\\BallUnderWater_1920x1080_60fps_h264.mp4':\n  Metadata:\n    major_brand     : isom\n    minor_version   : 512\n    compatible_brands: isomiso2avc1mp41\n    encoder         : Lavf62.3.100\n  Stream #0:0(und): Video: h264 (avc1 / 0x31637661), yuv420p(tv, progressive), 1920x1080, q=2-31, 8000 kb/s, 60 fps, 15360 tbn (default)\n    Metadata:\n      encoder         : Lavc62.11.100 libx264\n      handler_name    : VideoHandler\n      vendor_id       : [0][0][0][0]\n    Side data:\n      cpb: bitrate max/min/avg: 8000000/0/8000000 buffer size: 8000000 vbv_delay: N/A\nframe=    0 fps=0.0 q=0.0 size=       0KiB time=N/A bitrate=N/A speed=N/A elapsed=0:00:00.53    \nframe=    0 fps=0.0 q=0.0 size=       0KiB time=N/A bitrate=N/A speed=N/A elapsed=0:00:01.14    \nframe=    5 fps=2.8 q=33.0 size=       0KiB time=N/A bitrate=N/A speed=N/A elapsed=0:00:01.79    \nframe=    8 fps=3.2 q=32.0 size=       0KiB time=00:00:00.08 bitrate=   4.6kbits/s speed=0.0335x elapsed=0:00:02.48    \nframe=   11 fps=3.5 q=32.0 size=       0KiB time=00:00:00.15 bitrate=   2.6kbits/s speed=0.0476x elapsed=0:00:03.15    \nframe=   28 fps=7.6 q=32.0 size=     256KiB time=00:00:00.43 bitrate=4840.5kbits/s speed=0.118x elapsed=0:00:03.68    \nframe=   46 fps= 11 q=32.0 size=     512KiB time=00:00:00.73 bitrate=5720.0kbits/s speed=0.172x elapsed=0:00:04.27    \nframe=   55 fps= 11 q=31.0 size=     768KiB time=00:00:00.88 bitrate=7122.8kbits/s speed=0.183x elapsed=0:00:04.81    \nframe=   61 fps= 11 q=31.0 size=     768KiB time=00:00:00.96 bitrate=6508.8kbits/s speed=0.178x elapsed=0:00:05.43    \nframe=   67 fps= 11 q=31.0 size=    1024KiB time=00:00:01.06 bitrate=7864.7kbits/s speed=0.178x elapsed=0:00:06.00    \nframe=   78 fps= 12 q=30.0 size=    1024KiB time=00:00:01.25 bitrate=6711.2kbits/s speed=0.19x elapsed=0:00:06.57    \nframe=   90 fps= 12 q=31.0 size=    1280KiB time=00:00:01.43 bitrate=7315.9kbits/s speed=0.198x elapsed=0:00:07.23    \nframe=  101 fps= 13 q=31.0 size=    1536KiB time=00:00:01.61 bitrate=7783.5kbits/s speed=0.206x elapsed=0:00:07.84    \nframe=  111 fps= 13 q=31.0 size=    1536KiB time=00:00:01.78 bitrate=7056.1kbits/s speed=0.21x elapsed=0:00:08.50    \nframe=  118 fps= 13 q=31.0 size=    1792KiB time=00:00:01.93 bitrate=7593.3kbits/s speed=0.212x elapsed=0:00:09.12    \nframe=  128 fps= 13 q=31.0 size=    2048KiB time=00:00:02.10 bitrate=7989.3kbits/s speed=0.217x elapsed=0:00:09.67    \nframe=  139 fps= 14 q=31.0 size=    2048KiB time=00:00:02.26 bitrate=7401.9kbits/s speed=0.222x elapsed=0:00:10.21    \nframe=  151 fps= 14 q=31.0 size=    2304KiB time=00:00:02.46 bitrate=7651.9kbits/s speed=0.229x elapsed=0:00:10.78    \nframe=  161 fps= 14 q=31.0 size=    2560KiB time=00:00:02.65 bitrate=7913.9kbits/s speed=0.233x elapsed=0:00:11.38    \nframe=  173 fps= 14 q=30.0 size=    2560KiB time=00:00:02.81 bitrate=7445.6kbits/s speed=0.235x elapsed=0:00:11.98    \nframe=  185 fps= 15 q=30.0 size=    2816KiB time=00:00:03.05 bitrate=7563.6kbits/s speed=0.24x elapsed=0:00:12.68    \nframe=  199 fps= 15 q=30.0 size=    3072KiB time=00:00:03.25 bitrate=7743.4kbits/s speed=0.243x elapsed=0:00:13.35    \nframe=  204 fps= 15 q=31.0 size=    3072KiB time=00:00:03.36 bitrate=7475.1kbits/s speed=0.241x elapsed=0:00:13.97    \nframe=  214 fps= 15 q=31.0 size=    3328KiB time=00:00:03.50 bitrate=7789.5kbits/s speed=0.24x elapsed=0:00:14.55    \nframe=  225 fps= 15 q=31.0 size=    3584KiB time=00:00:03.66 bitrate=8007.4kbits/s speed=0.241x elapsed=0:00:15.19    \nframe=  241 fps= 15 q=31.0 size=    3840KiB time=00:00:03.90 bitrate=8066.1kbits/s speed=0.245x elapsed=0:00:15.90    \nframe=  257 fps= 16 q=31.0 size=    4096KiB time=00:00:04.18 bitrate=8021.1kbits/s speed=0.254x elapsed=0:00:16.50    \nframe=  268 fps= 16 q=31.0 size=    4096KiB time=00:00:04.43 bitrate=7568.8kbits/s speed=0.259x elapsed=0:00:17.10    \nframe=  287 fps= 16 q=-1.0 size=    4608KiB time=00:00:04.75 bitrate=7947.2kbits/s speed=0.269x elapsed=0:00:17.63    \n[mp4 @ 0000024140679980] Starting second pass: moving the moov atom to the beginning of the file\n[out#0/mp4 @ 0000024140681700] video:4910KiB audio:0KiB subtitle:0KiB other streams:0KiB global headers:0KiB muxing overhead: 0.055428%\nframe=  300 fps= 16 q=-1.0 Lsize=    4913KiB time=00:00:04.96 bitrate=8103.5kbits/s speed=0.272x elapsed=0:00:18.23    \n[libx264 @ 000002414221eb80] frame I:3     Avg QP:24.08  size: 41983\n[libx264 @ 000002414221eb80] frame P:238   Avg QP:27.09  size: 17395\n[libx264 @ 000002414221eb80] frame B:59    Avg QP:27.90  size: 12906\n[libx264 @ 000002414221eb80] consecutive B-frames: 73.3%  0.7%  2.0% 24.0%\n[libx264 @ 000002414221eb80] mb I  I16..4: 25.4% 73.4%  1.1%\n[libx264 @ 000002414221eb80] mb P  I16..4: 33.7% 14.6%  0.2%  P16..4: 28.2%  2.1%  0.8%  0.0%  0.0%    skip:20.4%\n[libx264 @ 000002414221eb80] mb B  I16..4:  6.3%  4.5%  0.0%  B16..8: 39.6%  4.0%  0.4%  direct: 2.5%  skip:42.7%  L0:51.5% L1:45.5% BI: 2.9%\n[libx264 @ 000002414221eb80] 8x8 transform intra:31.8% inter:92.4%\n[libx264 @ 000002414221eb80] direct mvs  spatial:84.7% temporal:15.3%\n[libx264 @ 000002414221eb80] coded y,uvDC,uvAC intra: 10.2% 35.2% 1.2% inter: 9.0% 23.9% 0.1%\n[libx264 @ 000002414221eb80] i16 v,h,dc,p: 20% 22% 16% 42%\n[libx264 @ 000002414221eb80] i8 v,h,dc,ddl,ddr,vr,hd,vl,hu:  8%  8% 32%  4% 17% 10% 11%  4%  6%\n[libx264 @ 000002414221eb80] i4 v,h,dc,ddl,ddr,vr,hd,vl,hu:  7%  7% 33%  6% 15%  8% 10%  5%  9%\n[libx264 @ 000002414221eb80] i8c dc,h,v,p: 58% 26% 15%  2%\n[libx264 @ 000002414221eb80] Weighted P-Frames: Y:5.9% UV:2.1%\n[libx264 @ 000002414221eb80] ref P L0: 54.8%  9.7% 16.7%  7.9%  6.0%  4.7%  0.2%\n[libx264 @ 000002414221eb80] ref B L0: 73.9% 16.3%  7.5%  2.3%\n[libx264 @ 000002414221eb80] ref B L1: 92.3%  7.7%\n[libx264 @ 000002414221eb80] kb/s:8043.83\n",
  "seconds": 18.669137001037598,
  "probe_out": {}
}